HIERARCHY
ROOT newVegas:Hips
{
	OFFSET 0.000000 96.479958 0.000000
	CHANNELS 6 Xposition Yposition Zposition Xrotation Yrotation Zrotation
	JOINT newVegas:Pelvis
	{
		OFFSET 0.000000 0.000000 0.000000
		CHANNELS 3 Xrotation Yrotation Zrotation
		JOINT newVegas:LeftUpLeg
		{
			OFFSET 18.735201 -5.666702 -4.541200
			CHANNELS 3 Xrotation Yrotation Zrotation
			JOINT newVegas:LeftLeg
			{
				OFFSET -0.021200 -31.938179 0.493100
				CHANNELS 3 Xrotation Yrotation Zrotation
				JOINT newVegas:LeftFoot
				{
					OFFSET 0.021200 -31.938179 -4.336299
					CHANNELS 3 Xrotation Yrotation Zrotation
					JOINT newVegas:LeftToeBase
					{
						OFFSET 0.943001 -26.722000 15.023500
						CHANNELS 3 Xrotation Yrotation Zrotation
						End Site
						{
							OFFSET 0.000000 30.670183 0.000000
						}
					}
				}
				JOINT newVegas:Left_PantLeg
				{
					OFFSET 0.663870 -9.044666 -1.108900
					CHANNELS 3 Xrotation Yrotation Zrotation
					End Site
					{
						OFFSET 1.415995 20.635357 0.000000
					}
				}
			}
		}
		JOINT newVegas:RightUpLeg
		{
			OFFSET -18.735201 -5.666702 -4.541200
			CHANNELS 3 Xrotation Yrotation Zrotation
			JOINT newVegas:RightLeg
			{
				OFFSET 0.018946 -31.938133 0.493100
				CHANNELS 3 Xrotation Yrotation Zrotation
				JOINT newVegas:RightFoot
				{
					OFFSET -0.018946 -31.938126 -4.336299
					CHANNELS 3 Xrotation Yrotation Zrotation
					JOINT newVegas:RightToeBase
					{
						OFFSET -0.943001 -26.722004 15.023500
						CHANNELS 3 Xrotation Yrotation Zrotation
						End Site
						{
							OFFSET 0.000000 30.670187 0.000000
						}
					}
				}
				JOINT newVegas:Right_PantLeg
				{
					OFFSET -0.661674 -9.044716 -1.108900
					CHANNELS 3 Xrotation Yrotation Zrotation
					End Site
					{
						OFFSET -1.415958 20.635269 0.000000
					}
				}
			}
		}
	}
	JOINT newVegas:Spine
	{
		OFFSET 0.000000 10.199997 -0.299500
		CHANNELS 3 Xrotation Yrotation Zrotation
		JOINT newVegas:Spine1
		{
			OFFSET 0.000000 11.900002 -1.516600
			CHANNELS 3 Xrotation Yrotation Zrotation
			JOINT newVegas:Spine2
			{
				OFFSET 0.000000 13.600006 -2.842500
				CHANNELS 3 Xrotation Yrotation Zrotation
				JOINT newVegas:Neck
				{
					OFFSET 0.000000 9.624100 -2.890100
					CHANNELS 3 Xrotation Yrotation Zrotation
					JOINT newVegas:Head
					{
						OFFSET 0.000000 14.068802 -1.351900
						CHANNELS 3 Xrotation Yrotation Zrotation
						JOINT newVegas:Hair_Back
						{
							OFFSET 0.000000 3.231903 -17.524799
							CHANNELS 3 Xrotation Yrotation Zrotation
							End Site
							{
								OFFSET 0.000000 19.849884 0.000000
							}
						}
						JOINT newVegas:Hair_Front
						{
							OFFSET 0.000000 31.260406 4.573800
							CHANNELS 3 Xrotation Yrotation Zrotation
							JOINT newVegas:Hair_Front1
							{
								OFFSET 0.000000 2.284103 11.993300
								CHANNELS 3 Xrotation Yrotation Zrotation
								JOINT newVegas:Hair_Front2
								{
									OFFSET 0.000000 2.284103 11.993300
									CHANNELS 3 Xrotation Yrotation Zrotation
									End Site
									{
										OFFSET 0.000000 12.208862 0.000000
									}
								}
							}
						}
						JOINT newVegas:Jowel
						{
							OFFSET 0.000000 -7.458206 6.864100
							CHANNELS 3 Xrotation Yrotation Zrotation
							End Site
							{
								OFFSET 0.000000 19.849884 0.000000
							}
						}
					}
				}
				JOINT newVegas:LeftShoulder
				{
					OFFSET 15.263000 10.923401 -0.547700
					CHANNELS 3 Xrotation Yrotation Zrotation
					JOINT newVegas:LeftArm
					{
						OFFSET 25.438599 -2.830597 -13.032500
						CHANNELS 3 Xrotation Yrotation Zrotation
						JOINT newVegas:LeftForeArm
						{
							OFFSET 29.960503 0.000000 0.000000
							CHANNELS 3 Xrotation Yrotation Zrotation
							JOINT newVegas:LeftHand
							{
								OFFSET 27.849251 0.000000 0.000000
								CHANNELS 3 Xrotation Yrotation Zrotation
								JOINT newVegas:LeftHandThumb1
								{
									OFFSET 4.487587 -3.305161 6.305391
									CHANNELS 3 Xrotation Yrotation Zrotation
									JOINT newVegas:LeftHandThumb2
									{
										OFFSET 5.480453 -3.164139 3.164143
										CHANNELS 3 Xrotation Yrotation Zrotation
										JOINT newVegas:LeftHandThumb3
										{
											OFFSET 5.159721 -2.978973 2.978967
											CHANNELS 3 Xrotation Yrotation Zrotation
											End Site
											{
												OFFSET 2.494507 5.926697 1.738678
											}
										}
									}
								}
								JOINT newVegas:LeftHandIndex1
								{
									OFFSET 18.578728 -0.527832 5.208049
									CHANNELS 3 Xrotation Yrotation Zrotation
									JOINT newVegas:LeftHandIndex2
									{
										OFFSET 3.192009 0.000000 0.000000
										CHANNELS 3 Xrotation Yrotation Zrotation
										JOINT newVegas:LeftHandIndex3
										{
											OFFSET 3.835129 0.000000 0.000000
											CHANNELS 3 Xrotation Yrotation Zrotation
											End Site
											{
												OFFSET -0.034599 3.816971 0.371180
											}
										}
									}
								}
								JOINT newVegas:LeftHandMiddle1
								{
									OFFSET 18.476105 0.000000 0.000000
									CHANNELS 3 Xrotation Yrotation Zrotation
									JOINT newVegas:LeftHandMiddle2
									{
										OFFSET 3.324875 0.000000 0.000000
										CHANNELS 3 Xrotation Yrotation Zrotation
										JOINT newVegas:LeftHandMiddle3
										{
											OFFSET 4.596550 0.000000 0.000000
											CHANNELS 3 Xrotation Yrotation Zrotation
											End Site
											{
												OFFSET 0.057701 4.578827 0.399218
											}
										}
									}
								}
								JOINT newVegas:LeftHandRing1
								{
									OFFSET 17.732719 0.121887 -4.201567
									CHANNELS 3 Xrotation Yrotation Zrotation
									JOINT newVegas:LeftHandRing2
									{
										OFFSET 2.733170 0.000000 0.000000
										CHANNELS 3 Xrotation Yrotation Zrotation
										JOINT newVegas:LeftHandRing3
										{
											OFFSET 3.178268 0.000000 0.000000
											CHANNELS 3 Xrotation Yrotation Zrotation
											End Site
											{
												OFFSET 0.119102 3.170624 0.185394
											}
										}
									}
								}
								JOINT newVegas:LeftHandPinky1
								{
									OFFSET 15.989624 -0.606689 -7.535461
									CHANNELS 3 Xrotation Yrotation Zrotation
									JOINT newVegas:LeftHandPinky2
									{
										OFFSET 2.538986 0.000000 0.000000
										CHANNELS 3 Xrotation Yrotation Zrotation
										JOINT newVegas:LeftHandPinky3
										{
											OFFSET 2.593102 0.000000 0.000000
											CHANNELS 3 Xrotation Yrotation Zrotation
											End Site
											{
												OFFSET -0.150902 2.584198 0.152708
											}
										}
									}
								}
							}
							JOINT newVegas:Left_Sleeve
							{
								OFFSET 0.267448 -0.649796 0.577675
								CHANNELS 3 Xrotation Yrotation Zrotation
								End Site
								{
									OFFSET 0.000000 15.991241 0.000000
								}
							}
							JOINT newVegas:Left_CapeC
							{
								OFFSET 15.715958 -8.608795 -6.935905
								CHANNELS 3 Xrotation Yrotation Zrotation
								JOINT newVegas:Left_CapeC1
								{
									OFFSET 0.000000 -8.688499 0.000000
									CHANNELS 3 Xrotation Yrotation Zrotation
									End Site
									{
										OFFSET 0.000000 8.688499 0.000000
									}
								}
							}
						}
						JOINT newVegas:Left_CapeB
						{
							OFFSET 26.118385 -8.608795 -7.079235
							CHANNELS 3 Xrotation Yrotation Zrotation
							JOINT newVegas:Left_CapeB1
							{
								OFFSET 0.000000 -8.688499 0.000000
								CHANNELS 3 Xrotation Yrotation Zrotation
								End Site
								{
									OFFSET 0.000000 8.688499 0.000000
								}
							}
						}
						JOINT newVegas:Left_CapeA
						{
							OFFSET 5.115639 -8.608795 -10.395809
							CHANNELS 3 Xrotation Yrotation Zrotation
							JOINT newVegas:Left_CapeA1
							{
								OFFSET 0.000000 -8.688499 0.000000
								CHANNELS 3 Xrotation Yrotation Zrotation
								End Site
								{
									OFFSET 0.000000 8.688499 0.000000
								}
							}
						}
					}
				}
				JOINT newVegas:RightShoulder
				{
					OFFSET -15.263000 10.923401 -0.547700
					CHANNELS 3 Xrotation Yrotation Zrotation
					JOINT newVegas:RightArm
					{
						OFFSET -25.438599 -2.830597 -13.032500
						CHANNELS 3 Xrotation Yrotation Zrotation
						JOINT newVegas:RightForeArm
						{
							OFFSET -29.960503 0.000000 0.000000
							CHANNELS 3 Xrotation Yrotation Zrotation
							JOINT newVegas:RightHand
							{
								OFFSET -27.849251 0.000000 0.000000
								CHANNELS 3 Xrotation Yrotation Zrotation
								JOINT newVegas:RightHandThumb1
								{
									OFFSET -4.487587 -3.305161 6.305391
									CHANNELS 3 Xrotation Yrotation Zrotation
									JOINT newVegas:RightHandThumb2
									{
										OFFSET -5.480453 -3.164139 3.164143
										CHANNELS 3 Xrotation Yrotation Zrotation
										JOINT newVegas:RightHandThumb3
										{
											OFFSET -5.159721 -2.978973 2.978967
											CHANNELS 3 Xrotation Yrotation Zrotation
											End Site
											{
												OFFSET -2.494507 5.926697 1.738678
											}
										}
									}
								}
								JOINT newVegas:RightHandIndex1
								{
									OFFSET -18.578728 -0.527832 5.208049
									CHANNELS 3 Xrotation Yrotation Zrotation
									JOINT newVegas:RightHandIndex2
									{
										OFFSET -3.192009 0.000000 0.000000
										CHANNELS 3 Xrotation Yrotation Zrotation
										JOINT newVegas:RightHandIndex3
										{
											OFFSET -3.835129 0.000000 0.000000
											CHANNELS 3 Xrotation Yrotation Zrotation
											End Site
											{
												OFFSET 0.034599 3.816971 0.371180
											}
										}
									}
								}
								JOINT newVegas:RightHandMiddle1
								{
									OFFSET -18.476105 0.000000 0.000000
									CHANNELS 3 Xrotation Yrotation Zrotation
									JOINT newVegas:RightHandMiddle2
									{
										OFFSET -3.324875 0.000000 0.000000
										CHANNELS 3 Xrotation Yrotation Zrotation
										JOINT newVegas:RightHandMiddle3
										{
											OFFSET -4.596550 0.000000 0.000000
											CHANNELS 3 Xrotation Yrotation Zrotation
											End Site
											{
												OFFSET -0.057701 4.578827 0.399218
											}
										}
									}
								}
								JOINT newVegas:RightHandRing1
								{
									OFFSET -17.732719 0.121887 -4.201567
									CHANNELS 3 Xrotation Yrotation Zrotation
									JOINT newVegas:RightHandRing2
									{
										OFFSET -2.733170 0.000000 0.000000
										CHANNELS 3 Xrotation Yrotation Zrotation
										JOINT newVegas:RightHandRing3
										{
											OFFSET -3.178268 0.000000 0.000000
											CHANNELS 3 Xrotation Yrotation Zrotation
											End Site
											{
												OFFSET -0.119102 3.170624 0.185394
											}
										}
									}
								}
								JOINT newVegas:RightHandPinky1
								{
									OFFSET -15.989624 -0.606689 -7.535461
									CHANNELS 3 Xrotation Yrotation Zrotation
									JOINT newVegas:RightHandPinky2
									{
										OFFSET -2.538986 0.000000 0.000000
										CHANNELS 3 Xrotation Yrotation Zrotation
										JOINT newVegas:RightHandPinky3
										{
											OFFSET -2.593102 0.000000 0.000000
											CHANNELS 3 Xrotation Yrotation Zrotation
											End Site
											{
												OFFSET 0.150902 2.584198 0.152708
											}
										}
									}
								}
							}
							JOINT newVegas:Right_CapeC
							{
								OFFSET -15.715958 -8.608795 -6.935905
								CHANNELS 3 Xrotation Yrotation Zrotation
								JOINT newVegas:Right_CapeC1
								{
									OFFSET 0.000000 -8.688499 0.000000
									CHANNELS 3 Xrotation Yrotation Zrotation
									End Site
									{
										OFFSET 0.000000 8.688499 0.000000
									}
								}
							}
							JOINT newVegas:Right_Sleeve
							{
								OFFSET -0.267448 -0.649994 0.577675
								CHANNELS 3 Xrotation Yrotation Zrotation
								End Site
								{
									OFFSET 0.000000 15.991302 0.000000
								}
							}
						}
						JOINT newVegas:Right_CapeA
						{
							OFFSET -5.115540 -8.608795 -10.395824
							CHANNELS 3 Xrotation Yrotation Zrotation
							JOINT newVegas:Right_CapeA1
							{
								OFFSET 0.000000 -8.688499 0.000000
								CHANNELS 3 Xrotation Yrotation Zrotation
								End Site
								{
									OFFSET 0.000000 8.688499 0.000000
								}
							}
						}
						JOINT newVegas:Right_CapeB
						{
							OFFSET -26.118187 -8.608795 -7.079266
							CHANNELS 3 Xrotation Yrotation Zrotation
							JOINT newVegas:Right_CapeB1
							{
								OFFSET 0.000000 -8.688499 0.000000
								CHANNELS 3 Xrotation Yrotation Zrotation
								End Site
								{
									OFFSET 0.000000 8.688499 0.000000
								}
							}
						}
					}
				}
				JOINT newVegas:Left_Collar
				{
					OFFSET 18.625099 8.655502 8.828100
					CHANNELS 3 Xrotation Yrotation Zrotation
					JOINT newVegas:Left_Collar1
					{
						OFFSET 14.783401 10.540405 -1.259500
						CHANNELS 3 Xrotation Yrotation Zrotation
						End Site
						{
							OFFSET 0.000000 18.199875 0.000000
						}
					}
				}
				JOINT newVegas:Collar_Back
				{
					OFFSET 0.000000 15.630707 -20.132601
					CHANNELS 3 Xrotation Yrotation Zrotation
					End Site
					{
						OFFSET 0.000000 22.523010 0.000000
					}
				}
				JOINT newVegas:Left_Peck
				{
					OFFSET 17.239599 -5.132599 25.482599
					CHANNELS 3 Xrotation Yrotation Zrotation
					End Site
					{
						OFFSET 0.000000 22.523010 0.000000
					}
				}
				JOINT newVegas:Right_Peck
				{
					OFFSET -17.239599 -5.132202 25.482599
					CHANNELS 3 Xrotation Yrotation Zrotation
					End Site
					{
						OFFSET 0.000000 22.523010 0.000000
					}
				}
				JOINT newVegas:Right_Collar
				{
					OFFSET -18.625099 8.655792 8.828100
					CHANNELS 3 Xrotation Yrotation Zrotation
					JOINT newVegas:Right_Collar1
					{
						OFFSET -14.783401 10.539993 -1.259500
						CHANNELS 3 Xrotation Yrotation Zrotation
						End Site
						{
							OFFSET 0.000000 18.199631 0.000000
						}
					}
				}
			}
		}
		JOINT newVegas:Belly
		{
			OFFSET 0.000000 -6.540398 9.014299
			CHANNELS 3 Xrotation Yrotation Zrotation
			End Site
			{
				OFFSET 0.000000 11.566666 0.000000
			}
		}
	}
	JOINT newVegas:ElvisFacialAnim_Joint
	{
		OFFSET 1.000000 -95.330101 -8.825800
		CHANNELS 3 Xrotation Yrotation Zrotation
		End Site
		{
			OFFSET 0.000000 35.315800 0.000000
		}
	}
}
MOTION
Frames: 4
Frame Time: 0.016667
-3.573022 80.484116 31.227877 5.465570 -411.407101 8.100376 -0.000000 0.000000 -0.000000 1.969986 14.322303 -10.347229 49.065005 -8.987418 -8.009692 -39.119191 -11.279502 18.641847 0.000000 -0.000000 -0.000000 -0.000003 -0.000002 0.000001 -56.542314 -0.229320 -3.342506 16.389555 8.836938 2.885531 -0.943587 3.017239 22.049840 0.000001 0.000003 0.000000 0.000002 0.000001 0.000001 11.636105 -6.495144 4.425137 7.182699 -7.370580 1.871815 -3.934133 -6.959432 2.025284 0.785833 8.373079 -1.657879 0.785836 8.373085 -1.657890 0.000001 0.000001 -0.000001 0.785765 8.373090 -1.657873 0.785920 8.373112 -1.657905 -0.000000 -0.000001 0.000000 0.000001 0.000001 -0.000001 1.383207 -5.637197 -0.733880 -2.266009 -2.878861 -36.679455 -0.000814 -20.848229 -3.050613 -46.535520 -14.688327 25.139510 20.995592 -10.306026 6.187769 3.717715 17.385546 -9.270247 -0.000002 -0.000000 -0.000008 12.155549 -5.008993 -19.357552 -1.752641 1.408431 -24.867484 -0.000002 -0.000000 -0.000002 2.495170 2.549549 -39.192005 -1.398722 0.248724 -47.542946 -0.000001 0.000001 0.000000 0.949983 6.178064 -48.371700 -2.316280 1.003915 -53.554605 0.000002 -0.000002 0.000000 -1.286400 4.834448 -53.465293 -2.521702 1.318772 -48.312189 0.000000 0.000002 -0.000001 0.000000 0.000000 -0.000001 0.000000 0.000000 -0.000001 0.000000 0.000000 -0.000001 0.000001 -0.000002 -0.000001 0.000002 -0.000001 -0.000001 0.000001 -0.000002 -0.000001 0.000001 -0.000002 -0.000001 9.987210 -5.269195 3.687163 4.872919 -1.636438 76.375503 -10.545824 13.289822 4.346984 -27.527565 -8.499036 -15.910810 55.149526 18.649562 -29.698291 -0.442559 -14.180552 7.313159 -0.000004 -0.000005 0.000001 5.673409 7.585009 36.844141 1.050476 3.824534 68.900237 -0.000000 -0.000000 -0.000001 -0.125714 1.886090 45.000766 -1.168998 3.204706 68.417650 0.000001 -0.000001 -0.000002 -5.311995 1.216654 58.508766 -0.745229 1.667570 48.011305 0.000003 -0.000003 0.000000 -7.756823 -9.376451 47.263994 -0.526027 1.541600 45.600539 -0.000003 0.000005 -0.000001 0.000001 -0.000000 -0.000001 0.000001 -0.000001 -0.000001 0.000001 -0.000001 -0.000001 0.000001 0.000001 0.000000 0.000001 0.000002 0.000001 0.000001 0.000001 0.000000 0.000001 0.000002 0.000001 0.000000 -0.000001 0.000000 0.000000 -0.000001 0.000000 0.000000 -0.000001 0.000000 0.000000 -0.000001 0.000000 0.000000 -0.000001 0.000000 0.000000 -0.000001 0.000000 0.000000 -0.000001 0.000000 0.000001 0.000001 -0.000000 -0.000000 0.000000 -0.000000 
-2.544876 80.638855 29.911663 5.553086 -412.561266 7.598592 0.000000 0.000003 -0.000000 4.374780 13.654346 -10.518539 44.746926 -8.471214 -7.918226 -42.558898 -10.797897 17.144951 0.000000 0.000001 -0.000000 -0.000001 0.000000 0.000001 -56.505291 -1.244498 -3.942532 15.614451 9.341326 3.713993 2.506679 4.092736 23.234321 -0.000005 0.000001 0.000001 0.000001 0.000001 0.000000 11.509718 -6.356239 4.532003 6.897510 -6.951606 1.878611 -4.209826 -6.549566 2.113402 0.632835 8.368443 -1.599998 0.632860 8.368424 -1.599986 0.000002 0.000001 -0.000001 0.632906 8.368443 -1.600009 0.632758 8.368407 -1.599980 -0.000000 -0.000001 0.000001 0.000002 0.000001 -0.000001 1.270529 -5.316220 -0.766511 -4.829679 -2.597522 -36.315095 -0.000758 -23.380837 -2.655192 -43.580005 -16.603176 22.958412 20.993666 -10.305580 6.186533 3.715731 17.385330 -9.269075 0.000000 -0.000001 -0.000001 12.155546 -5.009001 -19.357504 -1.752646 1.408478 -24.867530 0.000000 -0.000000 0.000000 2.495513 2.548904 -39.191943 -1.398879 0.248787 -47.542932 0.000000 0.000001 0.000002 0.950614 6.178106 -48.371731 -2.316292 1.003865 -53.554605 0.000000 -0.000001 0.000001 -1.286438 4.834472 -53.465256 -2.521153 1.318749 -48.312288 -0.000000 -0.000002 -0.000000 0.000001 -0.000000 0.000002 0.000001 -0.000000 0.000002 0.000001 -0.000000 0.000002 -0.000000 -0.000001 -0.000000 0.000001 -0.000001 -0.000000 -0.000000 -0.000001 -0.000000 0.000000 -0.000001 -0.000000 10.009428 -5.246988 3.894582 5.281020 -0.456759 74.450346 -9.017203 16.459803 6.074795 -27.199912 -7.979342 -16.432190 55.149536 18.649563 -29.698298 -0.442560 -14.180555 7.313162 0.000002 -0.000003 -0.000001 5.673415 7.585008 36.844144 1.050478 3.824532 68.900244 -0.000000 0.000000 -0.000001 -0.125712 1.886090 45.000773 -1.168999 3.204707 68.417650 0.000001 -0.000001 -0.000001 -5.311994 1.216654 58.508760 -0.745231 1.667569 48.011309 0.000001 0.000001 -0.000000 -7.756823 -9.376456 47.263994 -0.526035 1.541598 45.600542 0.000002 0.000003 -0.000002 -0.000000 -0.000001 -0.000001 -0.000001 -0.000003 -0.000001 -0.000000 -0.000001 -0.000001 0.000001 0.000002 -0.000002 0.000001 0.000003 -0.000000 0.000001 0.000002 -0.000002 0.000001 0.000003 -0.000000 0.000001 0.000000 -0.000000 0.000001 0.000000 -0.000000 0.000001 0.000000 -0.000000 0.000001 0.000000 -0.000000 0.000001 0.000000 -0.000000 0.000001 0.000000 -0.000000 0.000001 0.000000 -0.000000 0.000001 -0.000000 -0.000000 0.000000 0.000003 -0.000000 
-1.461724 81.004868 28.651062 5.800968 -413.469955 7.753376 -0.000000 0.000002 -0.000000 5.576364 13.003639 -10.945621 41.236997 -7.667952 -7.795739 -44.142375 -9.732980 15.352201 -0.000000 0.000002 -0.000000 -0.000001 0.000001 -0.000002 -57.333728 -0.907372 -3.995679 16.770297 9.401703 3.355309 6.108987 4.990099 22.873923 -0.000002 0.000000 -0.000003 0.000004 0.000002 -0.000002 11.429192 -6.194547 4.599528 6.702441 -6.646091 1.735219 -4.396968 -6.222343 2.032134 0.446177 8.384826 -1.659346 0.446170 8.384837 -1.659346 0.000000 0.000001 -0.000000 0.446176 8.384846 -1.659350 0.446180 8.384848 -1.659347 0.000000 -0.000001 -0.000001 0.000000 0.000001 0.000000 1.193839 -5.438142 -0.666392 -7.183534 -1.982283 -36.296172 -0.000737 -25.615151 -2.431709 -40.197197 -19.135398 21.319319 20.991789 -10.305266 6.185332 3.713709 17.384930 -9.267937 0.000001 0.000003 -0.000003 12.155572 -5.008983 -19.357567 -1.752628 1.408501 -24.867486 0.000004 -0.000003 0.000001 2.495735 2.548419 -39.191875 -1.399378 0.248715 -47.542925 -0.000001 0.000003 0.000002 0.951327 6.178116 -48.371816 -2.316283 1.003880 -53.554649 0.000001 -0.000002 -0.000001 -1.286392 4.834480 -53.465280 -2.520837 1.318724 -48.312230 -0.000001 0.000000 0.000000 0.000000 -0.000000 0.000001 0.000000 -0.000000 0.000001 -0.000000 -0.000001 0.000001 0.000000 0.000001 0.000001 0.000001 0.000001 -0.000001 0.000000 0.000001 0.000001 0.000000 0.000001 0.000001 10.002482 -5.247367 3.791891 5.106706 1.244150 72.693949 -7.342026 18.797420 7.476825 -27.297763 -7.313767 -16.910836 55.149533 18.649563 -29.698287 -0.442557 -14.180555 7.313157 -0.000000 -0.000000 -0.000001 5.673413 7.585012 36.844144 1.050477 3.824535 68.900237 0.000000 0.000001 0.000000 -0.125713 1.886087 45.000766 -1.168999 3.204707 68.417650 0.000001 -0.000001 0.000000 -5.311996 1.216653 58.508773 -0.745229 1.667568 48.011309 0.000002 0.000004 0.000001 -7.756821 -9.376454 47.263994 -0.526032 1.541600 45.600539 -0.000001 -0.000000 0.000001 0.000001 -0.000002 -0.000001 0.000000 -0.000002 0.000000 0.000001 -0.000002 -0.000000 0.000000 0.000002 -0.000000 0.000000 0.000003 0.000002 0.000000 0.000002 -0.000000 0.000000 0.000002 0.000002 -0.000002 -0.000000 -0.000000 -0.000002 -0.000000 -0.000000 -0.000002 -0.000000 -0.000000 -0.000002 -0.000000 -0.000000 -0.000002 -0.000000 -0.000000 -0.000002 -0.000000 -0.000000 -0.000002 -0.000000 -0.000000 -0.000002 0.000001 -0.000000 -0.000000 0.000002 -0.000000 
-0.565967 81.295090 27.521477 6.066472 -414.046231 8.147080 0.000000 0.000001 0.000000 6.086134 11.889280 -11.259458 38.601511 -7.141683 -7.366454 -45.427407 -8.381131 12.949075 -0.000000 -0.000002 0.000000 0.000001 0.000002 0.000003 -58.423198 0.300088 -4.113102 18.467769 9.342029 2.316324 10.190264 5.803738 23.692152 0.000000 -0.000001 -0.000002 0.000003 0.000001 -0.000002 11.401276 -6.066218 4.592009 6.628103 -6.390923 1.563484 -4.464398 -5.939065 1.913258 0.183501 8.380751 -1.736288 0.183500 8.380759 -1.736283 -0.000000 0.000001 -0.000002 0.183568 8.380757 -1.736301 0.183496 8.380762 -1.736295 -0.000000 0.000001 -0.000000 -0.000000 0.000001 -0.000001 1.126229 -5.641831 -0.722998 -9.346830 -1.665568 -36.045312 -0.000769 -28.424300 -2.537039 -36.837280 -19.811010 22.805351 20.990336 -10.305121 6.184457 3.711900 17.384474 -9.266752 0.000002 -0.000001 -0.000003 12.155600 -5.008946 -19.357507 -1.752644 1.408421 -24.867515 -0.000001 -0.000000 -0.000005 2.495622 2.548047 -39.191861 -1.400280 0.248763 -47.542901 -0.000000 0.000001 0.000001 0.951983 6.178099 -48.371953 -2.316346 1.003915 -53.554622 0.000001 0.000001 0.000000 -1.286412 4.834464 -53.465297 -2.520814 1.318751 -48.312284 -0.000001 0.000004 -0.000001 0.000000 0.000001 0.000002 0.000000 0.000001 0.000002 0.000001 0.000000 0.000002 0.000000 0.000000 0.000000 0.000001 0.000000 0.000001 0.000000 0.000000 0.000000 -0.000000 -0.000000 0.000001 10.045358 -5.469089 3.772903 4.495812 3.336457 70.727633 -5.588862 20.793987 8.779297 -27.367707 -6.389271 -16.786230 55.149526 18.649563 -29.698291 -0.442561 -14.180555 7.313158 0.000002 0.000000 0.000001 5.673412 7.585010 36.844144 1.050477 3.824534 68.900244 0.000000 0.000000 -0.000000 -0.125710 1.886088 45.000773 -1.169001 3.204706 68.417650 -0.000000 -0.000003 -0.000000 -5.311994 1.216654 58.508773 -0.745231 1.667569 48.011305 -0.000000 0.000001 -0.000000 -7.756820 -9.376453 47.263994 -0.526027 1.541598 45.600539 -0.000000 0.000001 0.000001 0.000000 -0.000002 -0.000000 0.000000 -0.000002 0.000000 0.000000 -0.000002 -0.000000 -0.000001 0.000000 0.000000 -0.000001 0.000001 -0.000000 -0.000001 0.000000 0.000000 -0.000001 0.000001 0.000000 -0.000001 -0.000001 0.000001 -0.000001 -0.000001 0.000001 -0.000001 -0.000001 0.000001 -0.000001 -0.000001 0.000001 -0.000001 -0.000001 0.000001 -0.000001 -0.000001 0.000001 -0.000001 -0.000001 0.000001 -0.000001 0.000001 -0.000001 0.000000 0.000001 0.000000 
